<svg width="102" height="102" viewBox="0 0 102 102" fill="none" xmlns="http://www.w3.org/2000/svg">
<g opacity="0.7" filter="url(#filter0_d_1_34)">
<ellipse cx="51.1665" cy="45.8636" rx="34.1835" ry="34.1835" transform="matrix(0.952086 -0.305856 0.305805 0.952086 -11.5737 17.8471)" fill="#470137"/>
</g>
<path d="M89.5456 35.5457C95.3194 53.5202 85.4288 72.7719 67.4544 78.5457C49.4799 84.3195 30.2282 74.4289 24.4544 56.4544C18.6806 38.48 28.5712 19.2282 46.5456 13.4544C64.5201 7.68065 83.7718 17.5712 89.5456 35.5457Z" fill="#470137"/>
<path d="M52.4871 38.5729L50.5546 47.4648L58.7334 53.4886C58.7887 53.5369 58.8279 53.5904 58.8352 53.6547C58.8424 53.719 58.7608 53.6961 58.6705 53.7429L55.0002 54.9654C54.7437 55.0508 54.5616 55.0948 54.3913 54.9849C53.8108 54.4784 53.22 53.992 52.6394 53.4856C52.0646 52.9938 51.452 52.498 50.8175 51.9929C50.183 51.4877 49.5486 50.9825 48.9083 50.4626L48.8762 50.4733C48.7895 51.2187 48.6706 51.9748 48.5518 52.7309C48.433 53.487 48.3142 54.243 48.2056 54.9791C48.0809 55.7204 47.9621 56.4765 47.8317 57.2031C47.8257 57.3718 47.7033 57.4292 47.5269 57.4879L44.0009 58.6624C43.9368 58.6838 43.9003 58.7292 43.8713 58.6556C43.832 58.602 43.8248 58.5378 43.8394 58.4829L45.8611 49.3114L38.0245 43.3735C37.9531 43.3306 37.9139 43.277 37.9343 43.2369C37.9489 43.182 38.0072 43.1459 38.0714 43.1246L41.7096 41.9127C41.7897 41.8861 41.8757 41.8741 41.9456 41.8675C42.0213 41.8756 42.0868 41.9037 42.1582 41.9466C42.7125 42.4785 43.3149 42.9944 43.9334 43.5049C44.5678 44.0101 45.1805 44.5058 45.8252 44.991C46.4538 45.4814 47.0504 45.9825 47.6368 46.5037L47.6689 46.4931C47.7498 45.7329 47.8526 44.9822 47.9612 44.2461C48.0698 43.5101 48.1945 42.7688 48.3191 42.0274C48.4437 41.286 48.5465 40.5353 48.6609 39.814C48.6537 39.7497 48.6625 39.6802 48.699 39.6347C48.7515 39.5839 48.8098 39.5478 48.8957 39.5358L52.2775 38.4094C52.3519 38.368 52.4494 38.3855 52.4945 38.4538C52.5163 38.4632 52.5075 38.5327 52.4871 38.5729Z" fill="#FF61F6"/>
<path d="M66.0209 51.6445C64.8407 52.0543 63.5675 52.2284 62.3135 52.1295C61.1353 52.0387 60.023 51.6094 59.1033 50.9326C58.1559 50.2318 57.4259 49.2085 56.8972 47.8683C56.4513 46.7838 56.3317 45.6072 56.5529 44.4671C56.7843 43.3069 57.3521 42.218 58.2008 41.3354C59.0961 40.3873 60.3321 39.659 61.9188 39.1305C61.9989 39.1038 62.1111 39.0665 62.2612 39.0332C62.4112 38.9998 62.5715 38.9465 62.7696 38.8971L60.9338 34.2431C60.8932 34.14 60.918 34.0651 61.0302 34.0277L64.2838 32.944C64.3581 32.9025 64.4455 32.9401 64.4847 32.9937C64.4905 33.0084 64.4963 33.0231 64.4963 33.0231L70.027 47.0442C70.1316 47.3093 70.2638 47.5985 70.4077 47.9172C70.5617 48.2158 70.6939 48.505 70.8087 48.75C70.8494 48.8531 70.8362 48.9575 70.7414 49.0391C70.0358 49.6407 69.2472 50.17 68.4078 50.6162C67.6427 51.021 66.8543 51.3669 66.0209 51.6445ZM66.4297 48.1757L63.8735 41.6954C63.7176 41.714 63.5617 41.7326 63.4117 41.7659C63.2296 41.8099 63.0474 41.8539 62.8711 41.9126C62.2461 42.1209 61.6675 42.4469 61.2111 42.8988C60.7649 43.3307 60.4454 43.8537 60.2787 44.4425C60.112 45.0312 60.1855 45.7232 60.4876 46.4891C60.6749 47.0099 60.9744 47.4934 61.3584 47.9153C61.6755 48.2596 62.0554 48.533 62.4921 48.7208C62.9012 48.8844 63.3512 48.9679 63.8144 48.9469C64.2994 48.9353 64.7714 48.8447 65.2202 48.6952C65.4606 48.6152 65.6792 48.5257 65.8817 48.4416C66.0959 48.3869 66.2606 48.2987 66.4297 48.1757Z" fill="#FF61F6"/>
<defs>
<filter id="filter0_d_1_34" x="0.695927" y="0.276397" width="100.941" height="100.941" filterUnits="userSpaceOnUse" color-interpolation-filters="sRGB">
<feFlood flood-opacity="0" result="BackgroundImageFix"/>
<feColorMatrix in="SourceAlpha" type="matrix" values="0 0 0 0 0 0 0 0 0 0 0 0 0 0 0 0 0 0 127 0" result="hardAlpha"/>
<feOffset dy="4.88336"/>
<feGaussianBlur stdDeviation="8.13893"/>
<feComposite in2="hardAlpha" operator="out"/>
<feColorMatrix type="matrix" values="0 0 0 0 0.168627 0 0 0 0 0.172549 0 0 0 0 0.203922 0 0 0 0.2 0"/>
<feBlend mode="normal" in2="BackgroundImageFix" result="effect1_dropShadow_1_34"/>
<feBlend mode="normal" in="SourceGraphic" in2="effect1_dropShadow_1_34" result="shape"/>
</filter>
</defs>
</svg>
